PathFileType	4	(X/Y/Z)	./resultDataOpenSim/trcMotMarkerGrf/sub09/qtm-05-07.trc
DataRate	CameraRate	NumFrames	NumMarkers	Units	OrigDataRate	OrigDataStartFrame	OrigNumFrames
250.000000	250.000000	10	24	m	250.000000	129	513
Frame#	Time	L.Toe.Tip			R.Toe.Tip			L.Ankle.Lat			R.Ankle.Lat			L.Ankle.Med			R.Ankle.Med			L.Heel			R.Heel			L.Knee.Lat			R.Knee.Lat			L.Knee.Med			R.Knee.Med			L.Thigh.Upper			R.Thigh.Upper			L.ASIS			R.ASIS			V.Sacral			L.Acromium			R.Acromium			C7			L.Elbow			R.Elbow			L.Wrist.Lat			R.Wrist.Lat
		X1	Y1	Z1	X2	Y2	Z2	X3	Y3	Z3	X4	Y4	Z4	X5	Y5	Z5	X6	Y6	Z6	X7	Y7	Z7	X8	Y8	Z8	X9	Y9	Z9	X10	Y10	Z10	X11	Y11	Z11	X12	Y12	Z12	X13	Y13	Z13	X14	Y14	Z14	X15	Y15	Z15	X16	Y16	Z16	X17	Y17	Z17	X18	Y18	Z18	X19	Y19	Z19	X20	Y20	Z20	X21	Y21	Z21	X22	Y22	Z22	X23	Y23	Z23	X24	Y24	Z24

129	0.512	-0.22139194	0.11004321	-0.012251457	-0.65498496	0.04146287	0.08307671	-0.36985436	0.10311362	-0.054021457	-0.80279794	0.061989239	0.098841907	-0.35508652	0.12023994	0.042669856	-0.77016456	0.10538967	0.017553669	-0.42643028	0.043246272	-0.010412302	-0.86459006	0.046175732	0.036656174	-0.41638159	0.51977738	-0.070950083	-0.62686159	0.47887972	0.20003686	-0.42627656	0.50930723	0.052317757	-0.62461286	0.47102252	0.072881273	-0.61475461	0.89018971	-0.11713746	-0.67404805	0.88602384	0.25297237	-0.55540787	0.97518821	-0.046488467	-0.57322387	0.97206245	0.19084205	-0.73223333	1.0277185	0.056872812	-0.56475271	1.4236512	-0.094235397	-0.57680091	1.4296845	0.23471965	-0.6376334	1.4776704	0.071733851	-0.7215158	1.0903908	-0.14415418	-0.68284228	1.0664814	0.3222451	-0.60192012	0.8558635	-0.17694774	-0.42789741	0.94569438	0.29611204
130	0.516	-0.20629351	0.1115752	-0.0086676655	-0.65473284	0.041329372	0.083053507	-0.35434123	0.10217725	-0.052011404	-0.80232816	0.06231205	0.098319426	-0.34065765	0.12001023	0.044594948	-0.76933939	0.10545993	0.017032133	-0.41005311	0.041470194	-0.0091264762	-0.86411267	0.046759515	0.03594062	-0.41097736	0.51737996	-0.070793364	-0.62275813	0.47765924	0.20043684	-0.42164084	0.5068191	0.052376579	-0.62039315	0.46976414	0.073205655	-0.6082982	0.8885751	-0.11670854	-0.66954515	0.88493029	0.2531583	-0.54902118	0.97369599	-0.04584758	-0.56835837	0.9709724	0.19145056	-0.72649153	1.0260881	0.056347016	-0.55946273	1.4224742	-0.094039468	-0.57204567	1.4285576	0.2349384	-0.63252163	1.4763446	0.071832893	-0.71650952	1.089575	-0.14413298	-0.67755256	1.0651177	0.32268955	-0.59855457	0.85443388	-0.17728097	-0.42187071	0.94605067	0.29571597
131	0.52	-0.19158591	0.11319037	-0.0049542067	-0.65445168	0.041198746	0.083046394	-0.33918727	0.10137026	-0.049923304	-0.80185664	0.062595729	0.097783905	-0.32663259	0.11993051	0.046511489	-0.76855152	0.10547554	0.016444028	-0.39411541	0.03983221	-0.0074966952	-0.86363197	0.047337719	0.035190404	-0.40553425	0.51494103	-0.070724187	-0.61869018	0.47635038	0.20080756	-0.41703441	0.50417872	0.0524601	-0.61619517	0.4684479	0.073507732	-0.60206607	0.88680857	-0.1162524	-0.66503757	0.8837734	0.25336773	-0.54260904	0.97210111	-0.045178328	-0.56347173	0.96981736	0.19207258	-0.72072391	1.0243734	0.055829142	-0.55405015	1.421187	-0.093821892	-0.56730266	1.4273423	0.23514898	-0.62740582	1.4749576	0.071921317	-0.71152327	1.0886881	-0.14425627	-0.67226133	1.0636688	0.32312135	-0.59505042	0.85295879	-0.17757295	-0.4158928	0.94629151	0.29531807
132	0.524	-0.17728657	0.1148829	-0.0011828811	-0.6541608	0.041067858	0.083037584	-0.32444162	0.10064655	-0.047813559	-0.8013727	0.062858257	0.097229724	-0.31309109	0.1199038	0.048428849	-0.76782998	0.10542661	0.015771141	-0.37860732	0.038283119	-0.0055764857	-0.86315671	0.047904289	0.034406238	-0.40000095	0.51245608	-0.070692705	-0.61464155	0.47495863	0.20114069	-0.41242435	0.50137744	0.052603573	-0.61198876	0.46707754	0.073780914	-0.59590881	0.88491825	-0.11576369	-0.66047676	0.88253953	0.25358399	-0.5361807	0.9704048	-0.044482751	-0.55854744	0.96859328	0.19270012	-0.71495067	1.0225816	0.055331927	-0.54847472	1.419787	-0.093596288	-0.5625642	1.426037	0.23535555	-0.62229517	1.4735045	0.071991131	-0.70653905	1.087718	-0.14442552	-0.66696472	1.0621343	0.32353707	-0.59141237	0.8514284	-0.17781801	-0.40996527	0.94641509	0.2949239
133	0.528	-0.16340296	0.1166512	0.002560915	-0.65388042	0.040934297	0.083003629	-0.31011491	0.09998985	-0.045735018	-0.80089509	0.063110443	0.096651342	-0.30003555	0.11984465	0.050320726	-0.76716418	0.10533268	0.015040991	-0.36347801	0.036822164	-0.0035954389	-0.86269888	0.048464638	0.033596407	-0.39439455	0.50991081	-0.070639643	-0.61061217	0.47349281	0.20141884	-0.40776801	0.49843476	0.052821431	-0.60779507	0.46563099	0.073983656	-0.5896686	0.88293548	-0.11522971	-0.65582984	0.88122493	0.25380104	-0.52974655	0.96861515	-0.043771034	-0.55358513	0.96729986	0.19332639	-0.70919753	1.02071	0.054856263	-0.54281416	1.4182818	-0.09337841	-0.55783134	1.4246555	0.23555784	-0.61719284	1.4719677	0.072036511	-0.70155035	1.0866547	-0.14458166	-0.66167167	1.0605212	0.32394454	-0.58770283	0.84982042	-0.17804575	-0.40409026	0.94642153	0.29453232
134	0.532	-0.1499363	0.11845964	0.0062179349	-0.65362576	0.040797556	0.082923884	-0.29618148	0.099397623	-0.04372561	-0.80046077	0.063359153	0.096041268	-0.28737483	0.11975368	0.052154356	-0.76650181	0.10524047	0.014325412	-0.34872259	0.035472695	-0.0017793091	-0.86226913	0.049041921	0.032776874	-0.38875968	0.50729948	-0.070518573	-0.60662624	0.47194772	0.20161615	-0.40302886	0.49539228	0.053115626	-0.6036401	0.4640885	0.074080832	-0.58328734	0.88087539	-0.11464792	-0.65110623	0.87983823	0.25402261	-0.52331296	0.96674257	-0.043058161	-0.54859535	0.96594003	0.1939452	-0.70350724	1.0187467	0.054401163	-0.53718743	1.4166811	-0.093173999	-0.55311308	1.4232138	0.23575157	-0.61209126	1.4703365	0.07206281	-0.69655247	1.0854979	-0.14472471	-0.65639427	1.0588389	0.32435642	-0.58398614	0.84812561	-0.17829786	-0.39826436	0.94630945	0.29413038
135	0.536	-0.13688192	0.12023784	0.0097588852	-0.65340456	0.04065843	0.082787221	-0.2826055	0.098863996	-0.041812203	-0.80009007	0.063611523	0.095397061	-0.27498538	0.11968366	0.053930078	-0.76580279	0.10518978	0.013676927	-0.33438251	0.034252165	-0.00026571856	-0.86187487	0.049655297	0.031964566	-0.38308234	0.50464177	-0.070300391	-0.60271739	0.47030365	0.20170184	-0.39818349	0.49229529	0.053491011	-0.59951459	0.46246964	0.074076679	-0.57679834	0.87873772	-0.11402853	-0.6463296	0.87838772	0.25425087	-0.51687802	0.96479286	-0.042354689	-0.54357832	0.96451424	0.19454975	-0.69791565	1.016685	0.053968025	-0.53164314	1.4149952	-0.092982367	-0.54840886	1.4217124	0.23593555	-0.60697941	1.4686223	0.072080136	-0.69152142	1.0842545	-0.14487425	-0.65113529	1.0570914	0.32477302	-0.58027947	0.84635369	-0.17859426	-0.39248138	0.94607647	0.29371263
136	0.54	-0.12422906	0.12191887	0.013164485	-0.65321559	0.040520128	0.082596224	-0.2693645	0.098380356	-0.040021257	-0.79975009	0.063882281	0.094741244	-0.26278391	0.11966178	0.055668465	-0.76507123	0.10519302	0.013093032	-0.32048043	0.033147356	0.00092500407	-0.86151941	0.050299786	0.031170581	-0.37727432	0.50197946	-0.069970223	-0.59887034	0.46856064	0.20167333	-0.39322052	0.48918029	0.053956176	-0.59539595	0.46081091	0.074001169	-0.57026652	0.87651481	-0.11339086	-0.64151188	0.87687626	0.25448247	-0.51043844	0.96276834	-0.04166154	-0.53851978	0.96301981	0.19513325	-0.69238258	1.0145386	0.053550602	-0.52614827	1.4132298	-0.09279833	-0.54370476	1.4201407	0.23611189	-0.60185463	1.4668437	0.072090466	-0.68643066	1.0829307	-0.14504676	-0.64588284	1.0552757	0.32517289	-0.57657451	0.84451061	-0.17893577	-0.38673862	0.94572088	0.29329357
137	0.544	-0.11196311	0.12346152	0.016415044	-0.65305257	0.040387922	0.082363877	-0.25645375	0.097940719	-0.038378049	-0.79935425	0.064197756	0.094129179	-0.2507446	0.11966644	0.057382609	-0.76433852	0.10523935	0.01254143	-0.3069857	0.032113292	0.0018749997	-0.86120041	0.050952755	0.030400275	-0.37129861	0.49934558	-0.069525506	-0.59500098	0.46675417	0.20156399	-0.38814139	0.4860754	0.054513797	-0.59127119	0.45912776	0.073887466	-0.56374236	0.87420098	-0.11275834	-0.63665028	0.87530101	0.25471172	-0.50399576	0.96067313	-0.040975714	-0.53340581	0.96145558	0.1956916	-0.68679341	1.0123376	0.053137248	-0.52065018	1.4113828	-0.092614748	-0.53899151	1.4184937	0.23628079	-0.59672293	1.4650046	0.072088536	-0.68128509	1.0815239	-0.14524757	-0.64061693	1.0533868	0.32551974	-0.57286983	0.84258632	-0.17932342	-0.38103789	0.9452438	0.29289258
138	0.548	-0.10007088	0.12484614	0.019491489	-0.65291179	0.040267955	0.082108961	-0.24387884	0.097536504	-0.036890488	-0.79883323	0.064578968	0.093618516	-0.23891199	0.11963263	0.059053806	-0.76364367	0.10530453	0.011992217	-0.29385275	0.031101863	0.0026744902	-0.86091212	0.051596504	0.029659453	-0.3652693	0.49673906	-0.068982095	-0.59102934	0.46492295	0.20139841	-0.38296613	0.48300612	0.055156676	-0.58711753	0.45742274	0.073760186	-0.55724854	0.87179956	-0.1121536	-0.63173724	0.87365808	0.25493445	-0.49755459	0.95851442	-0.040299011	-0.52823118	0.95982333	0.19622482	-0.6810692	1.0101039	0.052724777	-0.51511746	1.4094512	-0.092429302	-0.53427043	1.4167757	0.23644227	-0.59158837	1.4630967	0.072071293	-0.6761116	1.0800262	-0.14547168	-0.63532466	1.0514253	0.32578627	-0.56915064	0.84057384	-0.17975132	-0.37537897	0.94464981	0.29251481
